<svg width="19" height="13" viewBox="0 0 19 13" fill="none" xmlns="http://www.w3.org/2000/svg">
<path fill-rule="evenodd" clip-rule="evenodd" d="M6.56194 1.77266C5.92227 1.77266 5.3088 2.0216 4.85648 2.46472C4.40416 2.90785 4.15005 3.50885 4.15005 4.13552C4.15005 4.76219 4.40416 5.36319 4.85648 5.80632C5.3088 6.24944 5.92227 6.49838 6.56194 6.49838C7.20161 6.49838 7.81508 6.24944 8.2674 5.80632C8.71972 5.36319 8.97383 4.76219 8.97383 4.13552C8.97383 3.50885 8.71972 2.90785 8.2674 2.46472C7.81508 2.0216 7.20161 1.77266 6.56194 1.77266ZM2.34114 4.13552C2.34105 3.45014 2.51487 2.77549 2.84695 2.17224C3.17903 1.56899 3.65896 1.05607 4.24358 0.679613C4.8282 0.303153 5.49916 0.074961 6.19613 0.0155602C6.8931 -0.0438406 7.59421 0.0674129 8.2364 0.339315C8.87859 0.611216 9.44172 1.03524 9.87515 1.57324C10.3086 2.11125 10.5987 2.74636 10.7194 3.42146C10.8401 4.09656 10.7877 4.79047 10.5668 5.44078C10.3458 6.09109 9.96338 6.6774 9.45379 7.14699C10.4148 7.60371 11.2491 8.28077 11.886 9.12072C12.523 9.96068 12.9437 10.9387 13.1126 11.972C13.1312 12.0869 13.1265 12.2043 13.0988 12.3175C13.0711 12.4307 13.0209 12.5375 12.9511 12.6316C12.8813 12.7258 12.7932 12.8056 12.6919 12.8664C12.5906 12.9273 12.4781 12.968 12.3607 12.9862C12.2434 13.0044 12.1235 12.9998 12.008 12.9727C11.8924 12.9455 11.7835 12.8964 11.6873 12.828C11.5912 12.7596 11.5098 12.6733 11.4477 12.574C11.3856 12.4748 11.344 12.3646 11.3254 12.2496C11.1429 11.1407 10.5633 10.1316 9.69045 9.40331C8.81758 8.675 7.70849 8.27501 6.56194 8.27501C5.41539 8.27501 4.3063 8.675 3.43343 9.40331C2.56056 10.1316 1.98095 11.1407 1.79847 12.2496C1.77978 12.3646 1.73816 12.4748 1.67599 12.574C1.61382 12.6732 1.53231 12.7594 1.43611 12.8278C1.33992 12.8961 1.23093 12.9452 1.11536 12.9723C0.999793 12.9994 0.879911 13.0039 0.762562 12.9856C0.645212 12.9673 0.532692 12.9265 0.431426 12.8656C0.330161 12.8047 0.242133 12.7249 0.172368 12.6306C0.102603 12.5364 0.0524676 12.4296 0.0248246 12.3164C-0.0028184 12.2032 -0.00742786 12.0857 0.0112594 11.9708C0.180495 10.938 0.601418 9.9604 1.23834 9.12088C1.87527 8.28136 2.70942 7.60467 3.67009 7.14817C3.24985 6.76189 2.91507 6.29518 2.68647 5.77696C2.45787 5.25874 2.34033 4.70006 2.34114 4.13552ZM13.1946 2.36337C12.9547 2.36337 12.7247 2.45673 12.5551 2.6229C12.3855 2.78907 12.2902 3.01444 12.2902 3.24945C12.2902 3.48445 12.3855 3.70982 12.5551 3.87599C12.7247 4.04217 12.9547 4.13552 13.1946 4.13552C13.6027 4.13554 13.9987 4.27071 14.3184 4.51907C14.6381 4.76743 14.8628 5.11439 14.9558 5.5036C15.0488 5.89281 15.0048 6.3014 14.8309 6.66301C14.657 7.02462 14.3634 7.318 13.9978 7.49551C13.847 7.56897 13.7202 7.68222 13.6315 7.82248C13.5429 7.96275 13.496 8.12446 13.4961 8.28943V8.7053C13.4959 8.90432 13.564 9.09764 13.6896 9.2541C13.8152 9.41055 13.9908 9.52103 14.1883 9.56774C15.6355 9.90917 16.7956 10.9855 17.2297 12.3701C17.2641 12.4818 17.3208 12.5857 17.3963 12.676C17.4719 12.7662 17.5649 12.8409 17.67 12.8958C17.7751 12.9507 17.8902 12.9847 18.0088 12.9959C18.1273 13.0071 18.247 12.9952 18.3609 12.961C18.4747 12.9268 18.5806 12.8709 18.6723 12.7964C18.7641 12.722 18.8399 12.6306 18.8955 12.5274C18.9511 12.4242 18.9853 12.3112 18.9962 12.195C19.0071 12.0788 18.9945 11.9617 18.959 11.8503C18.7177 11.083 18.3195 10.3719 17.7888 9.76013C17.2581 9.14838 16.6059 8.6488 15.8718 8.29179C16.3433 7.78371 16.654 7.1524 16.7661 6.47458C16.8782 5.79677 16.7869 5.10165 16.5033 4.47371C16.2198 3.84576 15.7561 3.31204 15.1687 2.9374C14.5813 2.56276 13.8955 2.36333 13.1946 2.36337Z" fill="black"/>
</svg>
