<svg width="20" height="20" viewBox="0 0 20 20" fill="none" xmlns="http://www.w3.org/2000/svg">
<path fill-rule="evenodd" clip-rule="evenodd" d="M12.1083 12.9917C10.7488 14.1239 9.00512 14.6884 7.24 14.5677C5.47488 14.4471 3.82421 13.6506 2.63135 12.344C1.43849 11.0374 0.795283 9.32117 0.83552 7.55239C0.875757 5.78361 1.59634 4.09842 2.84738 2.84738C4.09842 1.59634 5.78361 0.875757 7.55239 0.83552C9.32117 0.795283 11.0374 1.43849 12.344 2.63135C13.6506 3.82421 14.4471 5.47488 14.5677 7.24C14.6884 9.00512 14.1239 10.7488 12.9917 12.1083L17.7333 16.85C17.7947 16.9072 17.844 16.9762 17.8781 17.0529C17.9123 17.1295 17.9307 17.2123 17.9322 17.2962C17.9336 17.3801 17.9182 17.4635 17.8868 17.5413C17.8553 17.6192 17.8085 17.6898 17.7492 17.7492C17.6898 17.8085 17.6192 17.8553 17.5413 17.8868C17.4635 17.9182 17.3801 17.9336 17.2962 17.9322C17.2123 17.9307 17.1295 17.9123 17.0529 17.8781C16.9762 17.844 16.9072 17.7947 16.85 17.7333L12.1083 12.9917ZM2.08333 7.70833C2.08352 6.79442 2.30639 5.89432 2.73265 5.08591C3.15891 4.2775 3.77573 3.58513 4.52973 3.06869C5.28374 2.55226 6.15222 2.22732 7.06004 2.12199C7.96785 2.01666 8.88767 2.13411 9.73989 2.46418C10.5921 2.79425 11.3511 3.327 11.9511 4.01634C12.5511 4.70567 12.9742 5.53083 13.1836 6.42042C13.3931 7.31 13.3826 8.23722 13.1531 9.12185C12.9237 10.0065 12.4821 10.8219 11.8667 11.4975C11.7821 11.5285 11.7053 11.5775 11.6416 11.6411C11.5778 11.7047 11.5287 11.7814 11.4975 11.8658C10.6916 12.6003 9.68966 13.0848 8.6135 13.2603C7.53734 13.4357 6.43337 13.2946 5.43594 12.8541C4.4385 12.4136 3.59058 11.6928 2.99537 10.7792C2.40015 9.86559 2.08328 8.79871 2.08333 7.70833Z" fill="black"/>
</svg>
