<svg width="15" height="15" viewBox="0 0 15 15" fill="none" xmlns="http://www.w3.org/2000/svg">
<path fill-rule="evenodd" clip-rule="evenodd" d="M7.4091 1.57029e-07C7.54911 -9.04296e-05 7.68636 0.0390138 7.8053 0.112887C7.92424 0.18676 8.02012 0.292452 8.0821 0.418L9.9641 4.233L14.1741 4.845C14.3126 4.86511 14.4426 4.92355 14.5496 5.01372C14.6566 5.10388 14.7363 5.22218 14.7795 5.35523C14.8228 5.48829 14.828 5.6308 14.7945 5.76665C14.761 5.9025 14.6902 6.02628 14.5901 6.124L11.5441 9.094L12.2631 13.286C12.2868 13.4239 12.2715 13.5657 12.2188 13.6954C12.1661 13.8251 12.0782 13.9374 11.965 14.0197C11.8518 14.102 11.7178 14.151 11.5782 14.1611C11.4386 14.1712 11.299 14.1421 11.1751 14.077L7.4091 12.097L3.6431 14.077C3.51929 14.142 3.37977 14.1711 3.24029 14.161C3.10081 14.1509 2.96694 14.102 2.85378 14.0199C2.74062 13.9377 2.65269 13.8255 2.59991 13.696C2.54713 13.5665 2.53161 13.4249 2.5551 13.287L3.2751 9.093L0.2271 6.124C0.126666 6.02632 0.0555992 5.90247 0.0219518 5.76647C-0.0116957 5.63047 -0.00657816 5.48777 0.0367245 5.35453C0.0800271 5.22129 0.159783 5.10284 0.266956 5.01261C0.374128 4.92238 0.504431 4.86397 0.6431 4.844L4.8531 4.233L6.7361 0.418C6.79808 0.292452 6.89396 0.18676 7.0129 0.112887C7.13184 0.0390138 7.26909 -9.04296e-05 7.4091 1.57029e-07ZM7.4091 2.445L6.0241 5.25C5.97031 5.3589 5.89089 5.45311 5.79264 5.52453C5.6944 5.59595 5.58028 5.64244 5.4601 5.66L2.3631 6.11L4.6031 8.294C4.69025 8.37886 4.75546 8.48365 4.79309 8.59933C4.83072 8.71501 4.83964 8.8381 4.8191 8.958L4.2911 12.042L7.0601 10.586C7.16773 10.5294 7.2875 10.4999 7.4091 10.4999C7.5307 10.4999 7.65047 10.5294 7.7581 10.586L10.5281 12.042L9.9981 8.958C9.97756 8.8381 9.98648 8.71501 10.0241 8.59933C10.0617 8.48365 10.1269 8.37886 10.2141 8.294L12.4541 6.111L9.3581 5.661C9.23792 5.64344 9.1238 5.59695 9.02556 5.52553C8.92731 5.45411 8.84788 5.3599 8.7941 5.251L7.4091 2.445Z" fill="black"/>
</svg>
